REM DIRINDEX 1\2,1\4,1\3\5,1\3\6,1\3\7
REM DIRNAME cjc081,folder01,folder02,folder03,folder04,folder05,folder06
TITLE ""
FILE "CD2Track05.mp3" MP3
  TRACK 01 AUDIO
    TITLE "0:"
    INDEX 01 00:00:00
  TRACK 02 AUDIO
    TITLE "5:cjc081_1226"
    INDEX 01 00:00:25
  TRACK 03 AUDIO
    TITLE "0:"
    INDEX 01 00:01:34
  TRACK 04 AUDIO
    TITLE "6:cjc081_1227"
    INDEX 01 00:02:04
  TRACK 05 AUDIO
    TITLE "0:"
    INDEX 01 00:03:06
  TRACK 06 AUDIO
    TITLE "5:cjc081_1228"
    INDEX 01 00:03:49
  TRACK 07 AUDIO
    TITLE "0:"
    INDEX 01 00:04:64
  TRACK 08 AUDIO
    TITLE "6:cjc081_1229"
    INDEX 01 00:05:30
  TRACK 09 AUDIO
    TITLE "0:"
    INDEX 01 00:07:52
  TRACK 10 AUDIO
    TITLE "5:cjc081_1230"
    INDEX 01 00:08:19
  TRACK 11 AUDIO
    TITLE "0:"
    INDEX 01 00:09:34
  TRACK 12 AUDIO
    TITLE "6:cjc081_1231"
    INDEX 01 00:10:04
  TRACK 13 AUDIO
    TITLE "0:"
    INDEX 01 00:11:19
  TRACK 14 AUDIO
    TITLE "5:cjc081_1232"
    INDEX 01 00:11:62
  TRACK 15 AUDIO
    TITLE "0:"
    INDEX 01 00:13:22
  TRACK 16 AUDIO
    TITLE "6:cjc081_1233"
    INDEX 01 00:13:67
  TRACK 17 AUDIO
    TITLE "0:"
    INDEX 01 00:15:34
  TRACK 18 AUDIO
    TITLE "5:cjc081_1234"
    INDEX 01 00:16:04
  TRACK 19 AUDIO
    TITLE "0:"
    INDEX 01 00:17:33
  TRACK 20 AUDIO
    TITLE "6:cjc081_1235"
    INDEX 01 00:18:03
  TRACK 21 AUDIO
    TITLE "0:"
    INDEX 01 00:20:41
  TRACK 22 AUDIO
    TITLE "5:cjc081_1236"
    INDEX 01 00:21:09
  TRACK 23 AUDIO
    TITLE "0:"
    INDEX 01 00:22:42
  TRACK 24 AUDIO
    TITLE "6:cjc081_1237"
    INDEX 01 00:23:14
  TRACK 25 AUDIO
    TITLE "0:"
    INDEX 01 00:24:61
  TRACK 26 AUDIO
    TITLE "5:cjc081_1238"
    INDEX 01 00:25:27
  TRACK 27 AUDIO
    TITLE "0:"
    INDEX 01 00:26:40
  TRACK 28 AUDIO
    TITLE "6:cjc081_1239"
    INDEX 01 00:27:12
  TRACK 29 AUDIO
    TITLE "0:"
    INDEX 01 00:29:13
  TRACK 30 AUDIO
    TITLE "5:cjc081_1240"
    INDEX 01 00:29:56
  TRACK 31 AUDIO
    TITLE "0:"
    INDEX 01 00:30:71
  TRACK 32 AUDIO
    TITLE "6:cjc081_1241"
    INDEX 01 00:31:35
  TRACK 33 AUDIO
    TITLE "0:"
    INDEX 01 00:33:01
  TRACK 34 AUDIO
    TITLE "5:cjc081_1242"
    INDEX 01 00:33:46
  TRACK 35 AUDIO
    TITLE "0:"
    INDEX 01 00:34:63
  TRACK 36 AUDIO
    TITLE "6:cjc081_1243"
    INDEX 01 00:35:33
  TRACK 37 AUDIO
    TITLE "0:"
    INDEX 01 00:36:58
  TRACK 38 AUDIO
    TITLE "5:cjc081_1244"
    INDEX 01 00:37:26
  TRACK 39 AUDIO
    TITLE "0:"
    INDEX 01 00:38:57
  TRACK 40 AUDIO
    TITLE "6:cjc081_1245"
    INDEX 01 00:39:29
  TRACK 41 AUDIO
    TITLE "0:"
    INDEX 01 00:40:58
  TRACK 42 AUDIO
    TITLE "5:cjc081_1246"
    INDEX 01 00:41:26
  TRACK 43 AUDIO
    TITLE "0:"
    INDEX 01 00:42:49
  TRACK 44 AUDIO
    TITLE "6:cjc081_1247"
    INDEX 01 00:43:21
  TRACK 45 AUDIO
    TITLE "0:"
    INDEX 01 00:44:34
  TRACK 46 AUDIO
    TITLE "5:cjc081_1248"
    INDEX 01 00:45:00
  TRACK 47 AUDIO
    TITLE "0:"
    INDEX 01 00:46:19
  TRACK 48 AUDIO
    TITLE "6:cjc081_1249"
    INDEX 01 00:46:64
  TRACK 49 AUDIO
    TITLE "0:"
    INDEX 01 00:47:60
  TRACK 50 AUDIO
    TITLE "5:cjc081_1250"
    INDEX 01 00:48:30
  TRACK 51 AUDIO
    TITLE "0:"
    INDEX 01 00:49:63
  TRACK 52 AUDIO
    TITLE "6:cjc081_1251"
    INDEX 01 00:50:35
  TRACK 53 AUDIO
    TITLE "0:"
    INDEX 01 00:51:48
  TRACK 54 AUDIO
    TITLE "5:cjc081_1252"
    INDEX 01 00:52:18
  TRACK 55 AUDIO
    TITLE "0:"
    INDEX 01 00:53:37
  TRACK 56 AUDIO
    TITLE "6:cjc081_1253"
    INDEX 01 00:54:09
  TRACK 57 AUDIO
    TITLE "0:"
    INDEX 01 00:55:24
  TRACK 58 AUDIO
    TITLE "5:cjc081_1254"
    INDEX 01 00:55:67
  TRACK 59 AUDIO
    TITLE "0:"
    INDEX 01 00:56:74
  TRACK 60 AUDIO
    TITLE "6:cjc081_1255"
    INDEX 01 00:57:48
  TRACK 61 AUDIO
    TITLE "0:"
    INDEX 01 00:59:02
  TRACK 62 AUDIO
    TITLE "7:cjc081_1256"
    INDEX 01 01:00:41
  TRACK 63 AUDIO
    TITLE "0:"
    INDEX 01 01:10:61
